<?xml version="1.0" encoding="utf-8"?>
<!-- Svg Vector Icons : http://www.onlinewebfonts.com/icon -->
<!DOCTYPE svg PUBLIC "-//W3C//DTD SVG 1.1//EN" "http://www.w3.org/Graphics/SVG/1.1/DTD/svg11.dtd">
<svg version="1.1" xmlns="http://www.w3.org/2000/svg" xmlns:xlink="http://www.w3.org/1999/xlink" x="0px" y="0px" viewBox="0 0 1000 1000" enable-background="new 0 0 1000 1000" xml:space="preserve">
<metadata> Svg Vector Icons : http://www.onlinewebfonts.com/icon </metadata>
<g><path d="M990,190.9l-327.1-72.3L512.7,243.4L347.8,118.5L12.9,184l167.5,166.2L10,518.9l167.5,73.3v161.6l335.2,127.7l313.8-131.7V606.2l161.9-81L825.4,350.1L990,190.9z M672.5,157.9L916,211.8L800.1,324l-19.7,19.1l-236.5-78.3L672.5,157.9z M87.3,206.5l251.5-49.2l141.3,107L225,343.1l-19-18.8L87.3,206.5z M73.7,507.1L206,376l17.6-17.4l262.9,104.3L411.1,664l-197.2-93.3v-2.3l-21.8-9.5L73.7,507.1z M213.9,611l217.4,102.9L496.5,540v296.4L213.9,728.7V611z M532.9,833.5V533l67.8,181.1l189.4-92.5v104L532.9,833.5z M928.6,514.4l-118.4,59.3l-0.6,0.3l-1-2l-187.9,91.9l-76.4-204l238.8-101.7l15.7,16.9L928.6,514.4z"/></g>
</svg>