<?xml version="1.0" encoding="utf-8"?>
<!-- Svg Vector Icons : http://www.onlinewebfonts.com/icon -->
<!DOCTYPE svg PUBLIC "-//W3C//DTD SVG 1.1//EN" "http://www.w3.org/Graphics/SVG/1.1/DTD/svg11.dtd">
<svg version="1.1" xmlns="http://www.w3.org/2000/svg" xmlns:xlink="http://www.w3.org/1999/xlink" x="0px" y="0px" viewBox="0 0 1000 1000" enable-background="new 0 0 1000 1000" xml:space="preserve">
<metadata> Svg Vector Icons : http://www.onlinewebfonts.com/icon </metadata>
<g><path d="M325.7,850.8c-38.8,0-70.2,31.4-70.2,70.2s31.4,70.2,70.2,70.2c38.8,0,70.2-31.4,70.2-70.2S364.5,850.8,325.7,850.8L325.7,850.8z"/><path d="M816.8,850.8c-38.8,0-70.2,31.4-70.2,70.2s31.4,70.2,70.2,70.2c38.8,0,70.2-31.4,70.2-70.2S855.6,850.8,816.8,850.8L816.8,850.8z"/><path d="M887,815.7H316.7c-50.5,0-95-40-101.2-91.1L156,305.8l-33.9-195.7c-2.1-17.1-17.7-31.1-32.9-31.1H45.1C25.7,79.1,10,63.4,10,44C10,24.6,25.7,8.9,45.1,8.9h44.1c51.2,0,96.2,40,102.3,91.1l33.8,195l59.7,420.6c2,16.3,16.7,30,31.6,30H887c19.4,0,35.1,15.7,35.1,35.1S906.4,815.7,887,815.7z"/><path d="M360.7,640.3c-17.3,0-32.2-12.7-34.7-30.1l-70.2-456c-1.4-10.1,1.6-20.2,8.2-28c6.7-7.7,16.3-12.1,26.5-12.1h603.4c26.8,0,51.4,11.1,69.3,31.4c20.5,23.1,29.9,55.7,25.8,89.5l-55.3,246c-5.9,49.2-50.4,89.2-100.9,89.2l-462.6,70.1C369.4,640.3,361.6,640.3,360.7,640.3z"/></g>
</svg>